<?xml version="1.0" standalone="no"?>
<!DOCTYPE svg PUBLIC "-//W3C//DTD SVG 20010904//EN"
 "http://www.w3.org/TR/2001/REC-SVG-20010904/DTD/svg10.dtd">
<svg version="1.0" xmlns="http://www.w3.org/2000/svg"
 width="512.000000pt" height="512.000000pt" viewBox="0 0 512.000000 512.000000"
 preserveAspectRatio="xMidYMid meet">

<g transform="translate(0.000000,512.000000) scale(0.100000,-0.100000)"
fill="#e30613" stroke="none">
<path d="M2315 5109 c-602 -62 -1141 -317 -1564 -740 -601 -602 -861 -1443
-706 -2285 75 -406 262 -810 528 -1139 84 -104 268 -288 372 -372 792 -638
1873 -752 2780 -292 134 67 328 194 450 292 104 84 288 268 372 372 550 681
716 1587 443 2415 -126 385 -332 720 -621 1009 -396 395 -881 638 -1449 726
-126 19 -477 28 -605 14z m-448 -1439 c139 -69 178 -184 126 -370 -53 -192
-232 -359 -497 -467 l-79 -31 -47 -149 c-61 -192 -80 -244 -131 -359 -23 -52
-40 -96 -38 -98 11 -10 253 -81 394 -116 465 -114 882 -158 1410 -147 658 14
1123 73 1634 208 9 3 19 -12 30 -44 12 -41 13 -50 1 -57 -21 -13 -449 -116
-621 -149 -196 -38 -521 -85 -749 -108 -134 -14 -266 -18 -565 -18 -349 0
-407 3 -552 22 -315 44 -680 126 -970 218 l-141 45 -65 -44 c-107 -72 -277
-115 -402 -102 -107 11 -183 43 -241 101 -58 58 -74 108 -54 170 15 45 77 98
141 118 70 23 238 22 352 -1 48 -10 90 -15 92 -12 26 43 165 467 165 504 0 8
-24 18 -62 25 -73 14 -159 40 -172 52 -5 5 -2 27 9 54 13 36 21 45 34 40 18
-8 190 -45 206 -45 6 0 17 28 24 63 19 94 78 261 124 357 76 156 197 289 307
338 112 50 238 50 337 2z m959 -449 c49 -22 69 -63 61 -122 -10 -79 -90 -126
-195 -116 -127 11 -180 82 -137 183 28 68 175 98 271 55z m1316 -331 c21 -6
51 -22 67 -35 35 -30 37 -30 44 -5 5 19 14 20 146 20 78 0 141 -3 141 -6 0 -4
-23 -86 -51 -183 -60 -208 -69 -269 -44 -294 21 -22 50 -21 104 3 24 11 45 20
46 20 2 0 10 -21 19 -47 l17 -48 -28 -23 c-79 -64 -217 -109 -305 -99 -56 7
-121 41 -143 74 l-15 22 -61 -39 c-105 -68 -228 -77 -337 -24 -30 15 -64 41
-79 62 -15 20 -30 41 -34 46 -4 4 -31 -10 -61 -32 -199 -150 -413 -159 -561
-23 -24 23 -48 41 -52 41 -4 0 -21 -12 -38 -26 -114 -96 -328 -143 -432 -95
-45 20 -92 69 -101 105 l-5 23 -63 -33 c-34 -18 -111 -50 -172 -71 -108 -37
-111 -38 -264 -38 -137 0 -161 3 -211 23 -124 50 -183 134 -183 262 0 64 5 86
31 141 54 115 154 197 291 239 132 41 311 35 397 -13 91 -51 113 -153 53 -243
-56 -84 -213 -146 -370 -147 -74 -1 -78 -2 -78 -23 0 -35 46 -82 93 -95 49
-13 163 1 260 32 71 23 202 85 215 102 5 7 33 98 62 203 l53 192 51 6 c91 11
266 7 266 -6 0 -6 -25 -100 -56 -209 -63 -222 -66 -268 -22 -283 65 -23 188
55 188 118 0 52 30 137 67 194 111 167 347 249 546 190 58 -17 63 -29 42 -98
-18 -59 -27 -71 -41 -49 -3 6 -26 20 -50 30 -95 43 -172 -22 -219 -185 -24
-82 -16 -148 20 -186 25 -26 36 -30 79 -30 62 0 137 33 194 84 35 32 40 42 44
91 9 110 113 257 226 318 94 51 227 71 314 47z"/>
<path d="M1684 3538 c-50 -39 -73 -71 -113 -153 -51 -104 -131 -370 -131 -435
0 -5 18 -3 41 5 182 65 320 206 373 384 29 98 15 185 -33 211 -35 18 -106 12
-137 -12z"/>
<path d="M492 2170 c-12 -5 -28 -21 -34 -36 -11 -24 -9 -29 25 -60 33 -30 43
-34 94 -34 60 0 132 27 195 71 36 26 31 30 -69 53 -78 17 -175 20 -211 6z"/>
<path d="M1939 2758 c-34 -23 -91 -121 -105 -182 l-7 -29 63 6 c85 9 139 40
168 97 28 56 28 84 0 110 -29 26 -77 26 -119 -2z"/>
<path d="M4045 2751 c-58 -35 -124 -199 -125 -307 0 -128 144 -124 209 5 24
46 56 153 65 212 6 41 4 50 -19 78 -32 37 -82 42 -130 12z"/>
</g>
</svg>
